<svg id="Layer_1" data-name="Layer 1" xmlns="http://www.w3.org/2000/svg" viewBox="0 0 2118.96 938.94"><defs><style>.cls-1{fill:#100f0d;}.cls-2{fill:#cf0;}.cls-3{fill:#11100e;}.cls-4,.cls-5{fill-rule:evenodd;}.cls-5{fill:#fff;}</style></defs><title>Centre Hiv logo vector</title><path class="cls-1" d="M424.2,1634c-45.52-82.86-88.83-161.62-132.08-240.41-44-80.23-88.34-160.32-132-240.79C73.7,993.31,135.7,801.31,298.77,722.48,425.62,661.16,590,706.07,669.35,823.7c67.5,100.1,79.75,207.42,24.67,314.19C608.32,1304,515.73,1466.54,424.2,1634Z" transform="translate(-121.13 -695.07)"/><path class="cls-2" d="M423.1,1573.45c-11.81-21.39-23.26-42-34.6-62.7q-102.57-187-205.09-374c-57.24-104.52-40.8-239.05,39.74-326.58,79.56-86.46,205-111.47,315.76-62.94C672,805.57,735.13,974.4,675.82,1113.31,667.52,1132.74,436.28,1554.13,423.1,1573.45Z" transform="translate(-121.13 -695.07)"/><path class="cls-3" d="M424.52,832.64c49.59,2,93.07,19.44,127.62,57,6.73,7.32,13.78,15.9,5.34,24.65-9.75,10.11-18.12,1.92-26-5.59-71.18-68.09-159.73-64-223.46,10.16-6.21,7.22-12.39,16.69-23.23,8.58-11.66-8.71-4.81-17.87,1.71-26.26C321.31,856.43,367.83,835.14,424.52,832.64Z" transform="translate(-121.13 -695.07)"/><path class="cls-3" d="M421.67,1178.66c-45.86-1.58-88.12-18.14-122.39-53.46-7.83-8.07-17.77-16.92-6.75-27.9,10.67-10.64,18.11.43,25.38,7.44,68.22,65.85,160.64,60.62,222.46-12.54,6.59-7.8,13.17-18.65,24.85-8.71,11.08,9.43,2.54,18.28-3.55,26.58C531.26,1151.5,477.74,1178.27,421.67,1178.66Z" transform="translate(-121.13 -695.07)"/><circle class="cls-1" cx="156.94" cy="310.12" r="21.11"/><circle class="cls-1" cx="455.84" cy="310.12" r="21.11"/><g id="Rectangle_1_copy" data-name="Rectangle 1 copy"><polygon class="cls-4" points="344.48 271.68 344.48 221.93 265.34 221.93 265.34 271.68 215.59 271.68 215.59 350.82 265.34 350.82 265.34 398.31 344.48 398.31 344.48 350.82 391.97 350.82 391.97 271.68 344.48 271.68"/></g><g id="Rectangle_1_copy_2" data-name="Rectangle 1 copy 2"><polygon class="cls-5" points="315.09 298.81 315.09 249.06 292.47 249.06 292.47 298.81 242.72 298.81 242.72 321.43 292.47 321.43 292.47 373.44 315.09 373.44 315.09 321.43 367.1 321.43 367.1 298.81 315.09 298.81"/></g><path d="M957.19,1284.89q-16,0-24.65-8.45t-8.7-23.61V1090.5H866.92q-13.42,0-20.48-6.72t-7.07-19.13q0-12.75,7.07-19.3t20.48-6.55h180.53q13.41,0,20.48,6.55t7.07,19.3q0,12.41-7.07,19.13t-20.48,6.72H990.54v162.34q0,15.17-8.34,23.61T957.19,1284.89Z" transform="translate(-121.13 -695.07)"/><path d="M1161.29,1285.58q-32.63,0-56.37-10.86t-36.43-30.85q-12.69-20-12.69-47.22,0-26.19,12.14-46a84.67,84.67,0,0,1,33.35-31q21.21-11.2,48.4-11.2a104,104,0,0,1,36.25,6,76.76,76.76,0,0,1,27.91,17.58,75.53,75.53,0,0,1,17.58,27.75q6,16.21,6,36.19,0,6.9-4,10.17t-12.69,3.27H1109.81v-29h80.48l-5.8,4.48q0-12.75-3.62-20.68a26.17,26.17,0,0,0-10.69-12.06q-7.07-4.14-17.58-4.14-11.24,0-19.39,5a32.1,32.1,0,0,0-12.51,14.65q-4.35,9.65-4.35,24.13v3.1q0,24.48,11.42,35t35.35,10.51a102.68,102.68,0,0,0,18.31-1.9,120.57,120.57,0,0,0,19.76-5.34q9.42-3.44,16.31-1.21a20.49,20.49,0,0,1,10.69,7.58,22.48,22.48,0,0,1,4.17,12.06,23.59,23.59,0,0,1-3.26,13.1q-3.63,6.38-12,9.82a128.36,128.36,0,0,1-27,8.27A152.33,152.33,0,0,1,1161.29,1285.58Z" transform="translate(-121.13 -695.07)"/><path d="M1336.38,1285.58a241.06,241.06,0,0,1-32.45-2.24,112,112,0,0,1-29.91-8.1q-9.06-3.44-12.87-9.31a21.28,21.28,0,0,1,.36-24.3,20.57,20.57,0,0,1,10.15-7.58q6.34-2.24,14.32.52a197.6,197.6,0,0,0,27.37,7.41,128.47,128.47,0,0,0,23.38,2.24q13.41,0,19.21-3.62t5.8-9.48a9.2,9.2,0,0,0-3.81-7.93q-3.81-2.76-10.69-3.79l-40.24-6.2q-22.48-3.79-34.8-15.68t-12.33-31.19q0-17.92,10.69-30.85t29.36-20q18.67-7.06,43-7.07a181.36,181.36,0,0,1,29.73,2.24,102.49,102.49,0,0,1,26.1,8.1q8,3.1,11.24,9a20,20,0,0,1,2.54,12.24,24.74,24.74,0,0,1-4.53,11.72,18.67,18.67,0,0,1-10.33,7.24q-6.52,1.9-15.23-.86a163.62,163.62,0,0,0-21.21-6.55,79.18,79.18,0,0,0-17.22-2.07q-14.87,0-21,3.79t-6.16,9.65a9.52,9.52,0,0,0,3.26,7.41q3.26,2.93,10.15,4l40.24,6.55q23.2,3.45,35.71,15t12.51,31.19q0,27.92-22.48,43.26T1336.38,1285.58Z" transform="translate(-121.13 -695.07)"/><path d="M1536.85,1285.58q-27.19,0-44.77-7.93t-26.28-24q-8.7-16-8.7-40.16v-56.18h-12.33q-11.61,0-17.94-5.86t-6.34-16.89q0-11,6.34-16.72t17.94-5.69h12.33v-21.37q0-15.16,8.34-23.09t23.93-7.93q15.58,0,23.93,7.93t8.34,23.09v21.37h29.73q12,0,18.31,5.69t6.34,16.72q0,11-6.34,16.89t-18.31,5.86h-29.73v54.11q0,12.76,6.34,18.79t20.12,6a45.57,45.57,0,0,0,9.79-1,40.74,40.74,0,0,1,8.7-1,11.72,11.72,0,0,1,9.42,3.27q3.62,3.62,3.63,16.37,0,10.34-3.26,17.41t-11.6,10.17a78.24,78.24,0,0,1-13.78,2.93A107.75,107.75,0,0,1,1536.85,1285.58Z" transform="translate(-121.13 -695.07)"/><path d="M1635.45,1284.89q-16,0-24.65-8.45t-8.7-24v-184.4q0-15.85,8.7-24.13t24.65-8.27q16.31,0,24.83,8.27t8.52,24.13v64.45H1774.3v-64.45q0-15.85,8.52-24.13t24.83-8.27q15.95,0,24.47,8.27t8.52,24.13v184.4q0,15.51-8.52,24t-24.47,8.45q-16.31,0-24.83-8.45t-8.52-24v-67.9H1668.81v67.9q0,15.51-8.34,24T1635.45,1284.89Z" transform="translate(-121.13 -695.07)"/><path d="M1920.39,1284.89q-16,0-24.65-8.45t-8.7-24v-184.4q0-15.85,8.7-24.13t24.65-8.27q16.31,0,24.83,8.27t8.52,24.13v184.4q0,15.51-8.34,24T1920.39,1284.89Z" transform="translate(-121.13 -695.07)"/><path d="M2111.8,1284.89q-13.78,0-22.29-5.52t-14.32-17.58l-87.73-184.06q-5.8-12.06-3.62-21.71a23.62,23.62,0,0,1,10.15-15q8-5.34,19.94-5.34,14.86,0,22.29,6.2t12.87,18.27l74,162.69h-20.3l74-163q5.44-12.06,13.05-18.1t21.39-6q11.23,0,18.85,5.34a23.37,23.37,0,0,1,9.61,15q2,9.65-3.81,21.71l-88.09,184.06q-5.44,12.07-13.78,17.58T2111.8,1284.89Z" transform="translate(-121.13 -695.07)"/><path d="M854.1,1478.87a5.72,5.72,0,0,1-4.14-1.4,5.17,5.17,0,0,1-1.45-3.9v-61.35a5.14,5.14,0,0,1,1.45-4,7,7,0,0,1,8.27,0,5.14,5.14,0,0,1,1.45,4V1438h42.45v-25.82a5.14,5.14,0,0,1,1.45-4,5.85,5.85,0,0,1,4.14-1.35,5.65,5.65,0,0,1,4.08,1.35,5.26,5.26,0,0,1,1.4,4v61.35a5.29,5.29,0,0,1-1.4,3.9,5.53,5.53,0,0,1-4.08,1.4,5.72,5.72,0,0,1-4.14-1.4,5.17,5.17,0,0,1-1.45-3.9v-26.82H859.69v26.82a5.29,5.29,0,0,1-1.4,3.9A5.69,5.69,0,0,1,854.1,1478.87Z" transform="translate(-121.13 -695.07)"/><path d="M939.11,1478.87a5.89,5.89,0,0,1-3.44-.9,3.42,3.42,0,0,1-1.5-2.4,6.17,6.17,0,0,1,.65-3.4l29.12-60.85a7.24,7.24,0,0,1,2.74-3.4,7.07,7.07,0,0,1,3.71-1,6.88,6.88,0,0,1,3.6,1,7.26,7.26,0,0,1,2.74,3.4l29.12,60.85a5.88,5.88,0,0,1,.75,3.45,3.4,3.4,0,0,1-1.4,2.4,5.64,5.64,0,0,1-3.33.85,5.91,5.91,0,0,1-3.76-1.1,9.17,9.17,0,0,1-2.47-3.4l-7.52-16.21,5.05,2.8H947.39l4.94-2.8-7.42,16.21a9.3,9.3,0,0,1-2.36,3.45A5.28,5.28,0,0,1,939.11,1478.87Zm31.06-59.75L953.94,1455l-2.69-2.4h37.94l-2.47,2.4-16.33-35.83Z" transform="translate(-121.13 -695.07)"/><path d="M1032.82,1478.87a5.72,5.72,0,0,1-4.14-1.4,5.17,5.17,0,0,1-1.45-3.9v-60.65a5,5,0,0,1,1.5-4,6,6,0,0,1,4.19-1.35h25.68q12.25,0,18.91,5.4t6.66,15.31a19.68,19.68,0,0,1-3,11,18.74,18.74,0,0,1-8.76,7,35.75,35.75,0,0,1-13.81,2.4l1-1.4h2.79a13.7,13.7,0,0,1,7.47,2,18.28,18.28,0,0,1,5.75,6.41l9.24,16a6.36,6.36,0,0,1,1,3.45,3.4,3.4,0,0,1-1.29,2.65,5.42,5.42,0,0,1-3.49,1,6.86,6.86,0,0,1-3.81-1,9,9,0,0,1-2.63-2.85l-11.28-19.42a12.24,12.24,0,0,0-5.16-5.25,18.22,18.22,0,0,0-7.63-1.35h-12.14v24.52a5.29,5.29,0,0,1-1.4,3.9A5.69,5.69,0,0,1,1032.82,1478.87Zm5.59-37.63h18.38q8.17,0,12.36-3.2t4.19-9.51q0-6.2-4.19-9.41t-12.36-3.2h-18.38Z" transform="translate(-121.13 -695.07)"/><path d="M1130.51,1478.87a5.72,5.72,0,0,1-4.14-1.4,5.17,5.17,0,0,1-1.45-3.9v-57.25h-22.78a5.14,5.14,0,0,1-3.55-1.15,4.13,4.13,0,0,1-1.29-3.25,4,4,0,0,1,1.29-3.2,5.29,5.29,0,0,1,3.55-1.1h56.64a5.47,5.47,0,0,1,3.65,1.1,4,4,0,0,1,1.29,3.2,4.13,4.13,0,0,1-1.29,3.25,5.31,5.31,0,0,1-3.65,1.15H1136v57.25a5.41,5.41,0,0,1-1.34,3.9A5.5,5.5,0,0,1,1130.51,1478.87Z" transform="translate(-121.13 -695.07)"/><path d="M1172,1478.87a5.89,5.89,0,0,1-3.44-.9,3.42,3.42,0,0,1-1.5-2.4,6.17,6.17,0,0,1,.65-3.4l29.12-60.85a7.24,7.24,0,0,1,2.74-3.4,7.07,7.07,0,0,1,3.71-1,6.88,6.88,0,0,1,3.6,1,7.26,7.26,0,0,1,2.74,3.4l29.12,60.85a5.88,5.88,0,0,1,.75,3.45,3.4,3.4,0,0,1-1.4,2.4,5.64,5.64,0,0,1-3.33.85,5.91,5.91,0,0,1-3.76-1.1,9.15,9.15,0,0,1-2.47-3.4l-7.52-16.21,5.05,2.8h-45.78l4.94-2.8-7.42,16.21a9.3,9.3,0,0,1-2.36,3.45A5.28,5.28,0,0,1,1172,1478.87Zm31.06-59.75L1186.82,1455l-2.69-2.4h37.94l-2.47,2.4-16.34-35.83Z" transform="translate(-121.13 -695.07)"/><path d="M1331,1479.07q-11.5,0-19.67-4.4a30,30,0,0,1-12.52-12.56q-4.35-8.15-4.35-19.27a42.7,42.7,0,0,1,2.47-15,31.86,31.86,0,0,1,7.15-11.41,30.66,30.66,0,0,1,11.5-7.26,44.6,44.6,0,0,1,15.42-2.5,46.1,46.1,0,0,1,12.2,1.6,32.61,32.61,0,0,1,10.16,4.6,5.43,5.43,0,0,1,2.42,2.65,4.65,4.65,0,0,1-1.24,5.3,4.39,4.39,0,0,1-2.74,1.05,6.18,6.18,0,0,1-3.6-1.1,25.35,25.35,0,0,0-7.84-3.7,33.4,33.4,0,0,0-9-1.2,27.64,27.64,0,0,0-13.76,3.15,20.43,20.43,0,0,0-8.49,9.16,38.37,38.37,0,0,0,0,29.27,20.38,20.38,0,0,0,8.49,9.21,27.64,27.64,0,0,0,13.76,3.15,32.68,32.68,0,0,0,9.08-1.25,30.69,30.69,0,0,0,8.22-3.75,6.37,6.37,0,0,1,3.49-1,4.4,4.4,0,0,1,4.08,3.25,4.71,4.71,0,0,1-.11,2.8,4.65,4.65,0,0,1-2.1,2.45,31.46,31.46,0,0,1-10.42,5A46,46,0,0,1,1331,1479.07Z" transform="translate(-121.13 -695.07)"/><path d="M1384.35,1478.17a6.3,6.3,0,0,1-4.46-1.45,5.39,5.39,0,0,1-1.56-4.15v-59.35a5.39,5.39,0,0,1,1.56-4.15,6.31,6.31,0,0,1,4.46-1.45h39.23a5,5,0,0,1,3.44,1.05,3.87,3.87,0,0,1,1.18,3.05,4.16,4.16,0,0,1-1.18,3.2,4.86,4.86,0,0,1-3.44,1.1h-34.5v22.12h32.13a4.84,4.84,0,0,1,3.49,1.1,4.9,4.9,0,0,1,0,6.25,5,5,0,0,1-3.49,1.05h-32.13v23.22h34.5a4.87,4.87,0,0,1,3.44,1.1,4.73,4.73,0,0,1,0,6.25,5,5,0,0,1-3.44,1.05Z" transform="translate(-121.13 -695.07)"/><path d="M1455.49,1478.87a5.46,5.46,0,0,1-3.87-1.3,4.81,4.81,0,0,1-1.4-3.7v-61.75a5.23,5.23,0,0,1,1.34-3.85,4.85,4.85,0,0,1,3.6-1.35,5.53,5.53,0,0,1,3,.65,11.43,11.43,0,0,1,2.42,2.35l44.28,54.34h-2.69v-52.44a4.78,4.78,0,0,1,1.34-3.6,6.32,6.32,0,0,1,7.68,0,4.9,4.9,0,0,1,1.29,3.6V1474a5,5,0,0,1-1.24,3.6,4.32,4.32,0,0,1-3.28,1.3,6.39,6.39,0,0,1-3.17-.7,10,10,0,0,1-2.63-2.4l-44.06-54.24h2.47v52.34a4.53,4.53,0,0,1-5.05,5Z" transform="translate(-121.13 -695.07)"/><path d="M1562.74,1478.87a5.72,5.72,0,0,1-4.14-1.4,5.17,5.17,0,0,1-1.45-3.9v-57.25h-22.78a5.14,5.14,0,0,1-3.55-1.15,4.13,4.13,0,0,1-1.29-3.25,4,4,0,0,1,1.29-3.2,5.29,5.29,0,0,1,3.55-1.1H1591a5.47,5.47,0,0,1,3.65,1.1,4,4,0,0,1,1.29,3.2,4.13,4.13,0,0,1-1.29,3.25,5.3,5.3,0,0,1-3.65,1.15h-22.78v57.25a5.41,5.41,0,0,1-1.34,3.9A5.5,5.5,0,0,1,1562.74,1478.87Z" transform="translate(-121.13 -695.07)"/><path d="M1618.52,1478.87a5.72,5.72,0,0,1-4.14-1.4,5.17,5.17,0,0,1-1.45-3.9v-60.65a5,5,0,0,1,1.5-4,6,6,0,0,1,4.19-1.35h25.69q12.25,0,18.91,5.4t6.66,15.31a19.68,19.68,0,0,1-3,11,18.74,18.74,0,0,1-8.76,7,35.75,35.75,0,0,1-13.81,2.4l1-1.4h2.79a13.7,13.7,0,0,1,7.47,2,18.28,18.28,0,0,1,5.75,6.41l9.24,16a6.35,6.35,0,0,1,1,3.45,3.4,3.4,0,0,1-1.29,2.65,5.42,5.42,0,0,1-3.49,1,6.86,6.86,0,0,1-3.82-1,9,9,0,0,1-2.63-2.85L1649,1455.65a12.24,12.24,0,0,0-5.16-5.25,18.22,18.22,0,0,0-7.63-1.35h-12.14v24.52a5.29,5.29,0,0,1-1.4,3.9A5.69,5.69,0,0,1,1618.52,1478.87Zm5.59-37.63h18.38q8.17,0,12.36-3.2t4.19-9.51q0-6.2-4.19-9.41t-12.36-3.2h-18.38Z" transform="translate(-121.13 -695.07)"/><path d="M1700.3,1478.17a6.3,6.3,0,0,1-4.46-1.45,5.39,5.39,0,0,1-1.56-4.15v-59.35a5.39,5.39,0,0,1,1.56-4.15,6.31,6.31,0,0,1,4.46-1.45h39.23a5,5,0,0,1,3.44,1.05,3.87,3.87,0,0,1,1.18,3.05,4.16,4.16,0,0,1-1.18,3.2,4.86,4.86,0,0,1-3.44,1.1H1705v22.12h32.13a4.84,4.84,0,0,1,3.49,1.1,4.9,4.9,0,0,1,0,6.25,5,5,0,0,1-3.49,1.05H1705v23.22h34.5a4.87,4.87,0,0,1,3.44,1.1,4.73,4.73,0,0,1,0,6.25,5,5,0,0,1-3.44,1.05Z" transform="translate(-121.13 -695.07)"/><path d="M1771.87,1478.17a5.9,5.9,0,0,1-4.19-1.4,5.06,5.06,0,0,1-1.5-3.9v-60.35a5.14,5.14,0,0,1,1.45-4,7,7,0,0,1,8.27,0,5.14,5.14,0,0,1,1.45,4v56.75h33.31a5.31,5.31,0,0,1,3.65,1.15,4.13,4.13,0,0,1,1.29,3.25,4.29,4.29,0,0,1-1.29,3.3,5.16,5.16,0,0,1-3.65,1.2Z" transform="translate(-121.13 -695.07)"/><path d="M1863,1479.07a38,38,0,0,1-18.75-4.45,30.6,30.6,0,0,1-12.36-12.61,40.12,40.12,0,0,1-4.35-19.17,42.7,42.7,0,0,1,2.47-15,32.24,32.24,0,0,1,7.09-11.41,30.53,30.53,0,0,1,11.18-7.26,41,41,0,0,1,14.72-2.5,38.24,38.24,0,0,1,18.81,4.4,30.47,30.47,0,0,1,12.3,12.51,39.85,39.85,0,0,1,4.35,19.12,43.15,43.15,0,0,1-2.47,15,32.3,32.3,0,0,1-7.15,11.51,30.74,30.74,0,0,1-11.23,7.31A40.73,40.73,0,0,1,1863,1479.07Zm0-9a24.44,24.44,0,0,0,12.84-3.2,20.78,20.78,0,0,0,8.17-9.31,34.6,34.6,0,0,0,2.85-14.71q0-12.91-6.23-20t-17.62-7.11a24.76,24.76,0,0,0-12.84,3.15,20.49,20.49,0,0,0-8.17,9.26,34.58,34.58,0,0,0-2.85,14.71q0,12.81,6.29,20T1863,1470.06Z" transform="translate(-121.13 -695.07)"/><path d="M1927.59,1478.87a5.72,5.72,0,0,1-4.14-1.4,5.17,5.17,0,0,1-1.45-3.9v-60.65a5,5,0,0,1,1.5-4,6,6,0,0,1,4.19-1.35h25.69q12.25,0,18.91,5.4t6.66,15.31a19.68,19.68,0,0,1-3,11,18.74,18.74,0,0,1-8.76,7,35.75,35.75,0,0,1-13.81,2.4l1-1.4h2.79a13.7,13.7,0,0,1,7.47,2,18.28,18.28,0,0,1,5.75,6.41l9.24,16a6.35,6.35,0,0,1,1,3.45,3.4,3.4,0,0,1-1.29,2.65,5.42,5.42,0,0,1-3.49,1,6.86,6.86,0,0,1-3.82-1,9,9,0,0,1-2.63-2.85l-11.28-19.42a12.24,12.24,0,0,0-5.16-5.25,18.22,18.22,0,0,0-7.63-1.35h-12.14v24.52a5.29,5.29,0,0,1-1.4,3.9A5.69,5.69,0,0,1,1927.59,1478.87Zm5.59-37.63h18.38q8.17,0,12.36-3.2t4.19-9.51q0-6.2-4.19-9.41t-12.36-3.2h-18.38Z" transform="translate(-121.13 -695.07)"/><path d="M2046.34,1478.17a6.3,6.3,0,0,1-4.46-1.45,5.39,5.39,0,0,1-1.56-4.15v-59.35a5.39,5.39,0,0,1,1.56-4.15,6.31,6.31,0,0,1,4.46-1.45h20.74q18.7,0,28.85,9.06t10.16,26.17a41.34,41.34,0,0,1-2.58,15.11,28.37,28.37,0,0,1-7.58,11.06,33.85,33.85,0,0,1-12.2,6.81,53.67,53.67,0,0,1-16.66,2.35Zm5.16-8.71h14.94a40.93,40.93,0,0,0,12.31-1.65,22.69,22.69,0,0,0,8.76-5,20,20,0,0,0,5.27-8.31,36.08,36.08,0,0,0,1.72-11.71q0-13.31-7-19.92t-21-6.61H2051.5Z" transform="translate(-121.13 -695.07)"/><path d="M2135.65,1478.17a6.3,6.3,0,0,1-4.46-1.45,5.39,5.39,0,0,1-1.56-4.15v-59.35a5.39,5.39,0,0,1,1.56-4.15,6.31,6.31,0,0,1,4.46-1.45h39.23a5,5,0,0,1,3.44,1.05,3.87,3.87,0,0,1,1.18,3.05,4.16,4.16,0,0,1-1.18,3.2,4.86,4.86,0,0,1-3.44,1.1h-34.5v22.12h32.13a4.84,4.84,0,0,1,3.49,1.1,4.9,4.9,0,0,1,0,6.25,5,5,0,0,1-3.49,1.05h-32.13v23.22h34.5a4.87,4.87,0,0,1,3.44,1.1,4.73,4.73,0,0,1,0,6.25,5,5,0,0,1-3.44,1.05Z" transform="translate(-121.13 -695.07)"/><path d="M872.59,1618.23a5.72,5.72,0,0,1-4.14-1.4,5.17,5.17,0,0,1-1.45-3.9v-57.25H844.22a5.14,5.14,0,0,1-3.55-1.15,4.13,4.13,0,0,1-1.29-3.25,4,4,0,0,1,1.29-3.2,5.29,5.29,0,0,1,3.55-1.1h56.64a5.47,5.47,0,0,1,3.65,1.1,4,4,0,0,1,1.29,3.2,4.13,4.13,0,0,1-1.29,3.25,5.31,5.31,0,0,1-3.65,1.15H878.07v57.25a5.41,5.41,0,0,1-1.34,3.9A5.5,5.5,0,0,1,872.59,1618.23Z" transform="translate(-121.13 -695.07)"/><path d="M928.79,1617.53a6.3,6.3,0,0,1-4.46-1.45,5.39,5.39,0,0,1-1.56-4.15v-59.35a5.39,5.39,0,0,1,1.56-4.15,6.31,6.31,0,0,1,4.46-1.45H968a5,5,0,0,1,3.44,1.05,3.87,3.87,0,0,1,1.18,3.05,4.16,4.16,0,0,1-1.18,3.2,4.86,4.86,0,0,1-3.44,1.1h-34.5v22.12h32.13a4.84,4.84,0,0,1,3.49,1.1,4.9,4.9,0,0,1,0,6.25,5,5,0,0,1-3.49,1.05H933.52v23.22H968a4.87,4.87,0,0,1,3.44,1.1,4.73,4.73,0,0,1,0,6.25,5,5,0,0,1-3.44,1.05Z" transform="translate(-121.13 -695.07)"/><path d="M1018.85,1618.43a66.08,66.08,0,0,1-9.67-.7,49.13,49.13,0,0,1-8.92-2.15,36.23,36.23,0,0,1-7.52-3.55,5.84,5.84,0,0,1-2.2-2.5,4.59,4.59,0,0,1,.91-5.1,4.25,4.25,0,0,1,2.36-1.25,4.4,4.4,0,0,1,3.12.85,37.48,37.48,0,0,0,10.21,4.25,47.93,47.93,0,0,0,11.71,1.35q9.13,0,13.49-3.05a9.32,9.32,0,0,0,4.35-8,7.55,7.55,0,0,0-3.12-6.36q-3.12-2.35-10.42-3.75l-11.5-2.2q-10.21-2-15.21-6.61t-5-12.41a17.9,17.9,0,0,1,2.1-8.61,20.75,20.75,0,0,1,5.86-6.76,27,27,0,0,1,9-4.35,41.81,41.81,0,0,1,11.5-1.5,47.36,47.36,0,0,1,12.52,1.6,32.68,32.68,0,0,1,10.48,4.9,4.48,4.48,0,0,1,1.88,2.25,4.85,4.85,0,0,1,.21,2.65,4.06,4.06,0,0,1-1.24,2.2,4.12,4.12,0,0,1-2.47,1.05,5.47,5.47,0,0,1-3.33-1,31.42,31.42,0,0,0-8.54-3.75,37.63,37.63,0,0,0-9.62-1.15,25.66,25.66,0,0,0-9.19,1.5,13.48,13.48,0,0,0-6,4.2,10.15,10.15,0,0,0-2.1,6.41,8.4,8.4,0,0,0,2.9,6.71q2.9,2.5,9.67,3.8l11.39,2.2q10.74,2.1,16,6.51a14.5,14.5,0,0,1,5.27,11.71,17.42,17.42,0,0,1-2,8.46,19.26,19.26,0,0,1-5.8,6.46,28,28,0,0,1-9.08,4.15A45.59,45.59,0,0,1,1018.85,1618.43Z" transform="translate(-121.13 -695.07)"/><path d="M1091.5,1618.23a5.72,5.72,0,0,1-4.14-1.4,5.17,5.17,0,0,1-1.45-3.9v-57.25h-22.78a5.14,5.14,0,0,1-3.55-1.15,4.13,4.13,0,0,1-1.29-3.25,4,4,0,0,1,1.29-3.2,5.29,5.29,0,0,1,3.55-1.1h56.64a5.47,5.47,0,0,1,3.65,1.1,4,4,0,0,1,1.29,3.2,4.13,4.13,0,0,1-1.29,3.25,5.31,5.31,0,0,1-3.65,1.15H1097v57.25a5.41,5.41,0,0,1-1.34,3.9A5.5,5.5,0,0,1,1091.5,1618.23Z" transform="translate(-121.13 -695.07)"/><path d="M1133,1618.23a5.89,5.89,0,0,1-3.44-.9,3.42,3.42,0,0,1-1.5-2.4,6.17,6.17,0,0,1,.65-3.4l29.12-60.85a7.24,7.24,0,0,1,2.74-3.4,7.07,7.07,0,0,1,3.71-1,6.88,6.88,0,0,1,3.6,1,7.26,7.26,0,0,1,2.74,3.4l29.12,60.85a5.89,5.89,0,0,1,.75,3.45,3.4,3.4,0,0,1-1.4,2.4,5.64,5.64,0,0,1-3.33.85,5.91,5.91,0,0,1-3.76-1.1,9.17,9.17,0,0,1-2.47-3.4l-7.52-16.21,5.05,2.8h-45.78l4.94-2.8-7.42,16.21a9.3,9.3,0,0,1-2.36,3.45A5.28,5.28,0,0,1,1133,1618.23Zm31.06-59.75-16.23,35.83-2.69-2.4h37.94l-2.47,2.4-16.33-35.83Z" transform="translate(-121.13 -695.07)"/><path d="M1226.69,1618.23a5.72,5.72,0,0,1-4.14-1.4,5.17,5.17,0,0,1-1.45-3.9v-60.65a5,5,0,0,1,1.5-4,6,6,0,0,1,4.19-1.35h25.69q12.25,0,18.91,5.4t6.66,15.31a19.68,19.68,0,0,1-3,11,18.74,18.74,0,0,1-8.76,7,35.75,35.75,0,0,1-13.81,2.4l1-1.4h2.79a13.7,13.7,0,0,1,7.47,2,18.28,18.28,0,0,1,5.75,6.41l9.24,16a6.35,6.35,0,0,1,1,3.45,3.4,3.4,0,0,1-1.29,2.65,5.42,5.42,0,0,1-3.49,1,6.86,6.86,0,0,1-3.82-1,9,9,0,0,1-2.63-2.85L1257.21,1595a12.24,12.24,0,0,0-5.16-5.25,18.22,18.22,0,0,0-7.63-1.35h-12.14v24.52a5.29,5.29,0,0,1-1.4,3.9A5.69,5.69,0,0,1,1226.69,1618.23Zm5.59-37.63h18.38q8.17,0,12.36-3.2t4.19-9.51q0-6.2-4.19-9.41t-12.36-3.2h-18.38Z" transform="translate(-121.13 -695.07)"/><path d="M1308.47,1617.53a6.3,6.3,0,0,1-4.46-1.45,5.39,5.39,0,0,1-1.56-4.15v-59.35a5.39,5.39,0,0,1,1.56-4.15,6.31,6.31,0,0,1,4.46-1.45h39.23a5,5,0,0,1,3.44,1.05,3.87,3.87,0,0,1,1.18,3.05,4.16,4.16,0,0,1-1.18,3.2,4.86,4.86,0,0,1-3.44,1.1h-34.5v22.12h32.13a4.84,4.84,0,0,1,3.49,1.1,4.9,4.9,0,0,1,0,6.25,5,5,0,0,1-3.49,1.05H1313.2v23.22h34.5a4.87,4.87,0,0,1,3.44,1.1,4.73,4.73,0,0,1,0,6.25,5,5,0,0,1-3.44,1.05Z" transform="translate(-121.13 -695.07)"/><path d="M1416.91,1618.23a5.72,5.72,0,0,1-4.14-1.4,5.17,5.17,0,0,1-1.45-3.9v-61.35a5.14,5.14,0,0,1,1.45-4,7,7,0,0,1,8.27,0,5.14,5.14,0,0,1,1.45,4v25.82h42.45v-25.82a5.14,5.14,0,0,1,1.45-4,5.85,5.85,0,0,1,4.14-1.35,5.65,5.65,0,0,1,4.08,1.35,5.26,5.26,0,0,1,1.4,4v61.35a5.29,5.29,0,0,1-1.4,3.9,5.53,5.53,0,0,1-4.08,1.4,5.72,5.72,0,0,1-4.14-1.4,5.17,5.17,0,0,1-1.45-3.9V1586.1H1422.5v26.82a5.29,5.29,0,0,1-1.4,3.9A5.69,5.69,0,0,1,1416.91,1618.23Z" transform="translate(-121.13 -695.07)"/><path d="M1507.93,1618.23a5.72,5.72,0,0,1-4.14-1.4,5.17,5.17,0,0,1-1.45-3.9v-61.35a5.14,5.14,0,0,1,1.45-4,7,7,0,0,1,8.27,0,5.14,5.14,0,0,1,1.45,4v61.35a5.29,5.29,0,0,1-1.4,3.9A5.69,5.69,0,0,1,1507.93,1618.23Z" transform="translate(-121.13 -695.07)"/><path d="M1568.54,1618.23a6.86,6.86,0,0,1-3.92-1.05,7.4,7.4,0,0,1-2.53-3.15l-28.91-60.95a5.53,5.53,0,0,1-.43-3.6,4,4,0,0,1,1.77-2.35,7.16,7.16,0,0,1,7,.15,7.41,7.41,0,0,1,2.15,3l27.08,58.45h-4l26.87-58.55a8.11,8.11,0,0,1,2.31-2.9,6.09,6.09,0,0,1,3.71-1,5.48,5.48,0,0,1,3.17.85,3.7,3.7,0,0,1,1.56,2.35,5.84,5.84,0,0,1-.64,3.6L1575,1614a7.59,7.59,0,0,1-2.47,3.15A6.81,6.81,0,0,1,1568.54,1618.23Z" transform="translate(-121.13 -695.07)"/></svg>