<svg id="Layer_1" data-name="Layer 1" xmlns="http://www.w3.org/2000/svg" viewBox="-170 0 940 940"><defs><style>.cls-1{fill:#100f0d;}.cls-2{fill:#cf0;}.cls-3{fill:#11100e;}.cls-4,.cls-5{fill-rule:evenodd;}.cls-5{fill:#fff;}</style></defs><title>Centre Hiv logo vector</title><path class="cls-1" d="M424.2,1634c-45.52-82.86-88.83-161.62-132.08-240.41-44-80.23-88.34-160.32-132-240.79C73.7,993.31,135.7,801.31,298.77,722.48,425.62,661.16,590,706.07,669.35,823.7c67.5,100.1,79.75,207.42,24.67,314.19C608.32,1304,515.73,1466.54,424.2,1634Z" transform="translate(-121.13 -695.07)"/><path class="cls-2" d="M423.1,1573.45c-11.81-21.39-23.26-42-34.6-62.7q-102.57-187-205.09-374c-57.24-104.52-40.8-239.05,39.74-326.58,79.56-86.46,205-111.47,315.76-62.94C672,805.57,735.13,974.4,675.82,1113.31,667.52,1132.74,436.28,1554.13,423.1,1573.45Z" transform="translate(-121.13 -695.07)"/><path class="cls-3" d="M424.52,832.64c49.59,2,93.07,19.44,127.62,57,6.73,7.32,13.78,15.9,5.34,24.65-9.75,10.11-18.12,1.92-26-5.59-71.18-68.09-159.73-64-223.46,10.16-6.21,7.22-12.39,16.69-23.23,8.58-11.66-8.71-4.81-17.87,1.71-26.26C321.31,856.43,367.83,835.14,424.52,832.64Z" transform="translate(-121.13 -695.07)"/><path class="cls-3" d="M421.67,1178.66c-45.86-1.58-88.12-18.14-122.39-53.46-7.83-8.07-17.77-16.92-6.75-27.9,10.67-10.64,18.11.43,25.38,7.44,68.22,65.85,160.64,60.62,222.46-12.54,6.59-7.8,13.17-18.65,24.85-8.71,11.08,9.43,2.54,18.28-3.55,26.58C531.26,1151.5,477.74,1178.27,421.67,1178.66Z" transform="translate(-121.13 -695.07)"/><circle class="cls-1" cx="156.94" cy="310.12" r="21.11"/><circle class="cls-1" cx="455.84" cy="310.12" r="21.11"/><g id="Rectangle_1_copy"><polygon class="cls-4" points="344.48 271.68 344.48 221.93 265.34 221.93 265.34 271.68 215.59 271.68 215.59 350.82 265.34 350.82 265.34 398.31 344.48 398.31 344.48 350.82 391.97 350.82 391.97 271.68 344.48 271.68"/></g><g id="Rectangle_1_copy_2"><polygon class="cls-5" points="315.09 298.81 315.09 249.06 292.47 249.06 292.47 298.81 242.72 298.81 242.72 321.43 292.47 321.43 292.47 373.44 315.09 373.44 315.09 321.43 367.1 321.43 367.1 298.81 315.09 298.81"/></g></svg>
